<?xml version="1.0" encoding="UTF-8" standalone="no"?>
<svg
   width="127pt"
   height="113.163pt"
   viewBox="0 0 127 113.163"
   version="1.1"
   id="svg2404"
   sodipodi:docname="reddit_brand_guidelines_version_2022_2022-04-01-160548_akmi.pdf"
   xmlns:inkscape="http://www.inkscape.org/namespaces/inkscape"
   xmlns:sodipodi="http://sodipodi.sourceforge.net/DTD/sodipodi-0.dtd"
   xmlns="http://www.w3.org/2000/svg"
   xmlns:svg="http://www.w3.org/2000/svg">
  <sodipodi:namedview
     id="namedview2406"
     pagecolor="#ffffff"
     bordercolor="#000000"
     borderopacity="0.25"
     inkscape:showpageshadow="2"
     inkscape:pageopacity="0.0"
     inkscape:pagecheckerboard="0"
     inkscape:deskcolor="#d1d1d1"
     inkscape:document-units="pt"
     showgrid="false" />
  <defs
     id="defs778" />
  <path
     fill-rule="nonzero"
     fill="#ff4500"
     fill-opacity="1"
     d="m 127,57.569767 c 0,-7.671098 -6.22307,-13.894191 -13.90232,-13.894191 -3.74199,0 -7.14234,1.488653 -9.63969,3.896546 C 93.964732,40.722644 80.875873,36.289187 66.298355,35.784816 L 72.627209,6.0034532 93.305778,10.396238 c 0.252172,5.263189 4.563635,9.452594 9.883752,9.452594 5.48285,0 9.92441,-4.441577 9.92441,-9.9244234 C 113.11394,4.441575 108.67238,0 103.18953,0 99.284816,0 95.949589,2.2695923 94.322641,5.5397836 L 71.228,0.62637445 C 70.585357,0.48809678 69.918331,0.61804555 69.365165,0.97617238 68.811996,1.3340914 68.421527,1.8954082 68.283249,2.5380482 L 61.214119,35.77672 C 46.425111,36.18345 33.132923,40.616908 23.509484,47.547712 21.012131,45.156103 17.628061,43.675576 13.894191,43.675576 6.2230938,43.675576 0,49.898669 0,57.569767 c 0,5.645521 3.3759406,10.501977 8.2079877,12.673947 -0.2114997,1.382932 -0.3335323,2.782117 -0.3335323,4.205685 0,21.378158 24.8923966,38.713361 55.5930116,38.713361 30.700589,0 55.584863,-17.335203 55.584863,-38.713361 0,-1.415478 -0.11407,-2.806505 -0.32539,-4.181273 C 123.59968,68.11241 127,63.239675 127,57.569767"
     id="path2212"
     style="stroke-width:2.08262" />
</svg>
